<?xml version="1.0" standalone="no"?><!DOCTYPE svg PUBLIC "-//W3C//DTD SVG 1.1//EN" "http://www.w3.org/Graphics/SVG/1.1/DTD/svg11.dtd"><svg t="1542011066480" class="icon" style="" viewBox="0 0 1024 1024" version="1.1" xmlns="http://www.w3.org/2000/svg" p-id="1485" xmlns:xlink="http://www.w3.org/1999/xlink" width="200" height="200"><defs><style type="text/css"></style></defs><path d="M837.900288 715.803648c-26.999808 0-48.88576-21.884928-48.88576-48.88576V341.016576c0-125.993984-102.136832-228.130816-228.129792-228.130816 0-26.998784-21.885952-48.883712-48.884736-48.883712-26.998784 0-48.884736 21.884928-48.884736 48.883712-125.99296 0-228.130816 102.136832-228.130816 228.130816v325.901312c0 27.000832-21.885952 48.88576-48.884736 48.88576-26.998784 0-48.884736 21.888-48.884736 48.88576 0 26.995712 21.885952 48.88576 48.884736 48.88576H837.900288c26.996736 0 48.884736-21.890048 48.884736-48.88576-0.001024-26.998784-21.888-48.88576-48.884736-48.88576zM514.046976 233.957376v0.229376c-82.59584 4.067328-149.10976 69.297152-155.193344 151.348224h-0.454656v265.728c0 15.552512-12.607488 28.16-28.16 28.16s-28.16-12.607488-28.16-28.16v-283.648c0-3.002368 0.474112-5.89312 1.344512-8.60672 11.638784-102.059008 98.280448-181.34528 203.455488-181.34528h7.168v0.0256c15.31392 0.275456 27.648 12.754944 27.648 28.1344s-12.33408 27.85792-27.648 28.1344z m-1.534976 726.0416c54.013952 0 97.80224-43.546624 97.80224-97.26464h-195.60448c0 53.718016 43.788288 97.26464 97.80224 97.26464z" fill="" p-id="1486"></path></svg>